%TF.GenerationSoftware,KiCad,Pcbnew,9.0.4*%
%TF.CreationDate,2025-10-13T09:43:13+02:00*%
%TF.ProjectId,Patch_Antenna,50617463-685f-4416-9e74-656e6e612e6b,rev?*%
%TF.SameCoordinates,Original*%
%TF.FileFunction,Copper,L2,Bot*%
%TF.FilePolarity,Positive*%
%FSLAX46Y46*%
G04 Gerber Fmt 4.6, Leading zero omitted, Abs format (unit mm)*
G04 Created by KiCad (PCBNEW 9.0.4) date 2025-10-13 09:43:13*
%MOMM*%
%LPD*%
G01*
G04 APERTURE LIST*
%TA.AperFunction,ComponentPad*%
%ADD10C,3.556000*%
%TD*%
G04 APERTURE END LIST*
D10*
%TO.P,J2,1,In*%
%TO.N,Net-(AE2-A)*%
X145670000Y-109800000D03*
%TD*%
%TA.AperFunction,Conductor*%
%TO.N,GND*%
G36*
X73341163Y-114627526D02*
G01*
X73361533Y-114650114D01*
X73411335Y-114721239D01*
X73426104Y-114742331D01*
X73426105Y-114742332D01*
X73678713Y-115043382D01*
X73840101Y-115204770D01*
X73956599Y-115321268D01*
X73956608Y-115321276D01*
X73956614Y-115321281D01*
X74257649Y-115573881D01*
X74444084Y-115704425D01*
X74487709Y-115759003D01*
X74494901Y-115828501D01*
X74463379Y-115890856D01*
X74403149Y-115926269D01*
X74372960Y-115930000D01*
X73259960Y-115930000D01*
X73192921Y-115910315D01*
X73147166Y-115857511D01*
X73135960Y-115806000D01*
X73135960Y-114721239D01*
X73155645Y-114654200D01*
X73208449Y-114608445D01*
X73277607Y-114598501D01*
X73341163Y-114627526D01*
G37*
%TD.AperFunction*%
%TA.AperFunction,Conductor*%
G36*
X215086165Y-114188429D02*
G01*
X215128096Y-114244318D01*
X215135960Y-114287775D01*
X215135960Y-115806000D01*
X215116275Y-115873039D01*
X215063471Y-115918794D01*
X215011960Y-115930000D01*
X213611983Y-115930000D01*
X213544944Y-115910315D01*
X213499189Y-115857511D01*
X213489245Y-115788353D01*
X213518270Y-115724797D01*
X213539099Y-115705681D01*
X213616900Y-115649156D01*
X213800009Y-115516126D01*
X214103577Y-115251456D01*
X214382492Y-114960921D01*
X214634557Y-114646808D01*
X214639958Y-114638697D01*
X214857777Y-114311609D01*
X214857782Y-114311599D01*
X214857789Y-114311590D01*
X214903065Y-114228464D01*
X214952417Y-114179006D01*
X215020675Y-114164082D01*
X215086165Y-114188429D01*
G37*
%TD.AperFunction*%
%TA.AperFunction,Conductor*%
G36*
X76918302Y-67482042D02*
G01*
X76934002Y-67486253D01*
X211127003Y-67514720D01*
X211151995Y-67517271D01*
X211158334Y-67518576D01*
X211161482Y-67519225D01*
X211223922Y-67515558D01*
X211230569Y-67515348D01*
X211557604Y-67513893D01*
X211570993Y-67514561D01*
X211892858Y-67548150D01*
X211906119Y-67550266D01*
X212222455Y-67618489D01*
X212235409Y-67622027D01*
X212542498Y-67724083D01*
X212555002Y-67729006D01*
X212849244Y-67863693D01*
X212861132Y-67869936D01*
X213139070Y-68035677D01*
X213150223Y-68043175D01*
X213408586Y-68238016D01*
X213418861Y-68246677D01*
X213446724Y-68272873D01*
X213640227Y-68454799D01*
X213654624Y-68468334D01*
X213663902Y-68478057D01*
X213874288Y-68723924D01*
X213882459Y-68734593D01*
X214065004Y-69001784D01*
X214071973Y-69013275D01*
X214206648Y-69265202D01*
X214224532Y-69298655D01*
X214230216Y-69310833D01*
X214350995Y-69611048D01*
X214355328Y-69623768D01*
X214442908Y-69935283D01*
X214445839Y-69948399D01*
X214499193Y-70267573D01*
X214500687Y-70280928D01*
X214519188Y-70603993D01*
X214519228Y-70617433D01*
X214504487Y-70904908D01*
X214504301Y-70907856D01*
X214503430Y-70919435D01*
X214499500Y-70934108D01*
X214499500Y-70971704D01*
X214499151Y-70976346D01*
X214498986Y-70976783D01*
X214498811Y-70980100D01*
X214495344Y-71012846D01*
X214495345Y-71012849D01*
X214497987Y-71029607D01*
X214499500Y-71048918D01*
X214499500Y-112160040D01*
X214498813Y-112173070D01*
X214463533Y-112506943D01*
X214461602Y-112519260D01*
X214391522Y-112854862D01*
X214388363Y-112866922D01*
X214284943Y-113193775D01*
X214280589Y-113205458D01*
X214144867Y-113520280D01*
X214139362Y-113531466D01*
X213972717Y-113831063D01*
X213966117Y-113841640D01*
X213770223Y-114122998D01*
X213762594Y-114132858D01*
X213539444Y-114393116D01*
X213530863Y-114402161D01*
X213282706Y-114638697D01*
X213273261Y-114646834D01*
X213002605Y-114857255D01*
X212992390Y-114864403D01*
X212701973Y-115046584D01*
X212691092Y-115052670D01*
X212383843Y-115204770D01*
X212372406Y-115209732D01*
X212051447Y-115330208D01*
X212039569Y-115333997D01*
X211708130Y-115421635D01*
X211695932Y-115424212D01*
X211357367Y-115478126D01*
X211344972Y-115479465D01*
X210999450Y-115499296D01*
X210992345Y-115499500D01*
X77003051Y-115499500D01*
X76996968Y-115499351D01*
X76977042Y-115498372D01*
X76663070Y-115482947D01*
X76650960Y-115481754D01*
X76323305Y-115433151D01*
X76311370Y-115430777D01*
X75990046Y-115350289D01*
X75978402Y-115346756D01*
X75666538Y-115235169D01*
X75655295Y-115230513D01*
X75355843Y-115088882D01*
X75345111Y-115083145D01*
X75061004Y-114912857D01*
X75050886Y-114906097D01*
X74784827Y-114708773D01*
X74775421Y-114701053D01*
X74529980Y-114478598D01*
X74521375Y-114469993D01*
X74298928Y-114224558D01*
X74291211Y-114215155D01*
X74264401Y-114179006D01*
X74191020Y-114080061D01*
X74093895Y-113949101D01*
X74087134Y-113938983D01*
X73916839Y-113654861D01*
X73911103Y-113644129D01*
X73769483Y-113344694D01*
X73764826Y-113333452D01*
X73725214Y-113222743D01*
X73653228Y-113021553D01*
X73649703Y-113009931D01*
X73569217Y-112688605D01*
X73566844Y-112676672D01*
X73518242Y-112349012D01*
X73517050Y-112336908D01*
X73502970Y-112050266D01*
X75149500Y-112050266D01*
X75149500Y-112292843D01*
X75181161Y-112533340D01*
X75243947Y-112767659D01*
X75336773Y-112991760D01*
X75336777Y-112991769D01*
X75353979Y-113021564D01*
X75458064Y-113201844D01*
X75458066Y-113201847D01*
X75458067Y-113201848D01*
X75605733Y-113394291D01*
X75605739Y-113394298D01*
X75777256Y-113565815D01*
X75777262Y-113565820D01*
X75969711Y-113713491D01*
X76179788Y-113834779D01*
X76403900Y-113927609D01*
X76638211Y-113990393D01*
X76818586Y-114014139D01*
X76878711Y-114022055D01*
X76878712Y-114022055D01*
X77121289Y-114022055D01*
X77169388Y-114015722D01*
X77361789Y-113990393D01*
X77596100Y-113927609D01*
X77820212Y-113834779D01*
X78030289Y-113713491D01*
X78222738Y-113565820D01*
X78394265Y-113394293D01*
X78541936Y-113201844D01*
X78663224Y-112991767D01*
X78756054Y-112767655D01*
X78818838Y-112533344D01*
X78850500Y-112292843D01*
X78850500Y-112050267D01*
X78849084Y-112039515D01*
X78827915Y-111878712D01*
X78818838Y-111809766D01*
X78756054Y-111575455D01*
X78663224Y-111351343D01*
X78541936Y-111141266D01*
X78481018Y-111061876D01*
X78394266Y-110948818D01*
X78394260Y-110948811D01*
X78222743Y-110777294D01*
X78222736Y-110777288D01*
X78030293Y-110629622D01*
X78030292Y-110629621D01*
X78030289Y-110629619D01*
X77820212Y-110508331D01*
X77820205Y-110508328D01*
X77596104Y-110415502D01*
X77361785Y-110352716D01*
X77121289Y-110321055D01*
X77121288Y-110321055D01*
X76878712Y-110321055D01*
X76878711Y-110321055D01*
X76638214Y-110352716D01*
X76403895Y-110415502D01*
X76179794Y-110508328D01*
X76179785Y-110508332D01*
X75969706Y-110629622D01*
X75777263Y-110777288D01*
X75777256Y-110777294D01*
X75605739Y-110948811D01*
X75605733Y-110948818D01*
X75458067Y-111141261D01*
X75336777Y-111351340D01*
X75336773Y-111351349D01*
X75243947Y-111575450D01*
X75181161Y-111809769D01*
X75149500Y-112050266D01*
X73502970Y-112050266D01*
X73500649Y-112003019D01*
X73500500Y-111996934D01*
X73500501Y-111934084D01*
X73500500Y-111934080D01*
X73500500Y-111926331D01*
X73500448Y-111925540D01*
X73499674Y-110809910D01*
X73498870Y-109650665D01*
X143391500Y-109650665D01*
X143391500Y-109949334D01*
X143391501Y-109949350D01*
X143430484Y-110245456D01*
X143430485Y-110245461D01*
X143430486Y-110245467D01*
X143507790Y-110533971D01*
X143608562Y-110777256D01*
X143622088Y-110809910D01*
X143622092Y-110809920D01*
X143771430Y-111068582D01*
X143953255Y-111305541D01*
X143953261Y-111305548D01*
X144164451Y-111516738D01*
X144164458Y-111516744D01*
X144401417Y-111698569D01*
X144660079Y-111847907D01*
X144660080Y-111847907D01*
X144660083Y-111847909D01*
X144936029Y-111962210D01*
X145224533Y-112039514D01*
X145520659Y-112078500D01*
X145520666Y-112078500D01*
X145819334Y-112078500D01*
X145819341Y-112078500D01*
X146115467Y-112039514D01*
X146403971Y-111962210D01*
X146605555Y-111878711D01*
X209121099Y-111878711D01*
X209121099Y-112121288D01*
X209152760Y-112361785D01*
X209215546Y-112596104D01*
X209286605Y-112767655D01*
X209308375Y-112820212D01*
X209429663Y-113030289D01*
X209429665Y-113030292D01*
X209429666Y-113030293D01*
X209577332Y-113222736D01*
X209577338Y-113222743D01*
X209748855Y-113394260D01*
X209748861Y-113394265D01*
X209941310Y-113541936D01*
X210151387Y-113663224D01*
X210375499Y-113756054D01*
X210609810Y-113818838D01*
X210790185Y-113842584D01*
X210850310Y-113850500D01*
X210850311Y-113850500D01*
X211092888Y-113850500D01*
X211140987Y-113844167D01*
X211333388Y-113818838D01*
X211567699Y-113756054D01*
X211791811Y-113663224D01*
X212001888Y-113541936D01*
X212194337Y-113394265D01*
X212365864Y-113222738D01*
X212513535Y-113030289D01*
X212634823Y-112820212D01*
X212727653Y-112596100D01*
X212790437Y-112361789D01*
X212822099Y-112121288D01*
X212822099Y-111878712D01*
X212790437Y-111638211D01*
X212727653Y-111403900D01*
X212634823Y-111179788D01*
X212513535Y-110969711D01*
X212365889Y-110777294D01*
X212365865Y-110777263D01*
X212365859Y-110777256D01*
X212194342Y-110605739D01*
X212194335Y-110605733D01*
X212001892Y-110458067D01*
X212001891Y-110458066D01*
X212001888Y-110458064D01*
X211791811Y-110336776D01*
X211791804Y-110336773D01*
X211567703Y-110243947D01*
X211333384Y-110181161D01*
X211092888Y-110149500D01*
X211092887Y-110149500D01*
X210850311Y-110149500D01*
X210850310Y-110149500D01*
X210609813Y-110181161D01*
X210375494Y-110243947D01*
X210151393Y-110336773D01*
X210151384Y-110336777D01*
X209941305Y-110458067D01*
X209748862Y-110605733D01*
X209748855Y-110605739D01*
X209577338Y-110777256D01*
X209577332Y-110777263D01*
X209429666Y-110969706D01*
X209308376Y-111179785D01*
X209308372Y-111179794D01*
X209215546Y-111403895D01*
X209152760Y-111638214D01*
X209121099Y-111878711D01*
X146605555Y-111878711D01*
X146679917Y-111847909D01*
X146938583Y-111698569D01*
X147175543Y-111516743D01*
X147386743Y-111305543D01*
X147568569Y-111068583D01*
X147717909Y-110809917D01*
X147832210Y-110533971D01*
X147909514Y-110245467D01*
X147948500Y-109949341D01*
X147948500Y-109650659D01*
X147909514Y-109354533D01*
X147832210Y-109066029D01*
X147717909Y-108790083D01*
X147568569Y-108531417D01*
X147386743Y-108294457D01*
X147386738Y-108294451D01*
X147175548Y-108083261D01*
X147175541Y-108083255D01*
X146938582Y-107901430D01*
X146679920Y-107752092D01*
X146679910Y-107752088D01*
X146656240Y-107742283D01*
X146403971Y-107637790D01*
X146115467Y-107560486D01*
X146115461Y-107560485D01*
X146115456Y-107560484D01*
X145819350Y-107521501D01*
X145819347Y-107521500D01*
X145819341Y-107521500D01*
X145520659Y-107521500D01*
X145520653Y-107521500D01*
X145520649Y-107521501D01*
X145224543Y-107560484D01*
X145224536Y-107560485D01*
X145224533Y-107560486D01*
X144936029Y-107637790D01*
X144781320Y-107701872D01*
X144660089Y-107752088D01*
X144660079Y-107752092D01*
X144401417Y-107901430D01*
X144164458Y-108083255D01*
X144164451Y-108083261D01*
X143953261Y-108294451D01*
X143953255Y-108294458D01*
X143771430Y-108531417D01*
X143622092Y-108790079D01*
X143622088Y-108790089D01*
X143571872Y-108911320D01*
X143507790Y-109066029D01*
X143507789Y-109066033D01*
X143430487Y-109354530D01*
X143430484Y-109354543D01*
X143391501Y-109650649D01*
X143391500Y-109650665D01*
X73498870Y-109650665D01*
X73472072Y-71003087D01*
X73472221Y-70996922D01*
X73473048Y-70980100D01*
X73478029Y-70878711D01*
X75149500Y-70878711D01*
X75149500Y-71121288D01*
X75181161Y-71361785D01*
X75243947Y-71596104D01*
X75336773Y-71820205D01*
X75336776Y-71820212D01*
X75458064Y-72030289D01*
X75458066Y-72030292D01*
X75458067Y-72030293D01*
X75605733Y-72222736D01*
X75605739Y-72222743D01*
X75777256Y-72394260D01*
X75777262Y-72394265D01*
X75969711Y-72541936D01*
X76179788Y-72663224D01*
X76403900Y-72756054D01*
X76638211Y-72818838D01*
X76818586Y-72842584D01*
X76878711Y-72850500D01*
X76878712Y-72850500D01*
X77121289Y-72850500D01*
X77169388Y-72844167D01*
X77361789Y-72818838D01*
X77596100Y-72756054D01*
X77820212Y-72663224D01*
X78030289Y-72541936D01*
X78222738Y-72394265D01*
X78394265Y-72222738D01*
X78541936Y-72030289D01*
X78663224Y-71820212D01*
X78756054Y-71596100D01*
X78818838Y-71361789D01*
X78850500Y-71121288D01*
X78850500Y-70878712D01*
X78850500Y-70878711D01*
X209249500Y-70878711D01*
X209249500Y-71121288D01*
X209281161Y-71361785D01*
X209343947Y-71596104D01*
X209436773Y-71820205D01*
X209436776Y-71820212D01*
X209558064Y-72030289D01*
X209558066Y-72030292D01*
X209558067Y-72030293D01*
X209705733Y-72222736D01*
X209705739Y-72222743D01*
X209877256Y-72394260D01*
X209877262Y-72394265D01*
X210069711Y-72541936D01*
X210279788Y-72663224D01*
X210503900Y-72756054D01*
X210738211Y-72818838D01*
X210918586Y-72842584D01*
X210978711Y-72850500D01*
X210978712Y-72850500D01*
X211221289Y-72850500D01*
X211269388Y-72844167D01*
X211461789Y-72818838D01*
X211696100Y-72756054D01*
X211920212Y-72663224D01*
X212130289Y-72541936D01*
X212322738Y-72394265D01*
X212494265Y-72222738D01*
X212641936Y-72030289D01*
X212763224Y-71820212D01*
X212856054Y-71596100D01*
X212918838Y-71361789D01*
X212950500Y-71121288D01*
X212950500Y-70878712D01*
X212949164Y-70868567D01*
X212920943Y-70654202D01*
X212918838Y-70638211D01*
X212856054Y-70403900D01*
X212763224Y-70179788D01*
X212641936Y-69969711D01*
X212494265Y-69777262D01*
X212494260Y-69777256D01*
X212322743Y-69605739D01*
X212322736Y-69605733D01*
X212130293Y-69458067D01*
X212130292Y-69458066D01*
X212130289Y-69458064D01*
X211920212Y-69336776D01*
X211920205Y-69336773D01*
X211696104Y-69243947D01*
X211461785Y-69181161D01*
X211221289Y-69149500D01*
X211221288Y-69149500D01*
X210978712Y-69149500D01*
X210978711Y-69149500D01*
X210738214Y-69181161D01*
X210503895Y-69243947D01*
X210279794Y-69336773D01*
X210279785Y-69336777D01*
X210069706Y-69458067D01*
X209877263Y-69605733D01*
X209877256Y-69605739D01*
X209705739Y-69777256D01*
X209705733Y-69777263D01*
X209558067Y-69969706D01*
X209436777Y-70179785D01*
X209436773Y-70179794D01*
X209343947Y-70403895D01*
X209281161Y-70638214D01*
X209249500Y-70878711D01*
X78850500Y-70878711D01*
X78849164Y-70868567D01*
X78820943Y-70654202D01*
X78818838Y-70638211D01*
X78756054Y-70403900D01*
X78663224Y-70179788D01*
X78541936Y-69969711D01*
X78394265Y-69777262D01*
X78394260Y-69777256D01*
X78222743Y-69605739D01*
X78222736Y-69605733D01*
X78030293Y-69458067D01*
X78030292Y-69458066D01*
X78030289Y-69458064D01*
X77820212Y-69336776D01*
X77820205Y-69336773D01*
X77596104Y-69243947D01*
X77361785Y-69181161D01*
X77121289Y-69149500D01*
X77121288Y-69149500D01*
X76878712Y-69149500D01*
X76878711Y-69149500D01*
X76638214Y-69181161D01*
X76403895Y-69243947D01*
X76179794Y-69336773D01*
X76179785Y-69336777D01*
X75969706Y-69458067D01*
X75777263Y-69605733D01*
X75777256Y-69605739D01*
X75605739Y-69777256D01*
X75605733Y-69777263D01*
X75458067Y-69969706D01*
X75336777Y-70179785D01*
X75336773Y-70179794D01*
X75243947Y-70403895D01*
X75181161Y-70638214D01*
X75149500Y-70878711D01*
X73478029Y-70878711D01*
X73488759Y-70660281D01*
X73489952Y-70648175D01*
X73525535Y-70408293D01*
X73538965Y-70317750D01*
X73541334Y-70305839D01*
X73622504Y-69981790D01*
X73626034Y-69970158D01*
X73636193Y-69941765D01*
X73738569Y-69655646D01*
X73743210Y-69644439D01*
X73886051Y-69342426D01*
X73891767Y-69331734D01*
X74063506Y-69045203D01*
X74070249Y-69035110D01*
X74269255Y-68766782D01*
X74276958Y-68757397D01*
X74501302Y-68509872D01*
X74509872Y-68501302D01*
X74757397Y-68276958D01*
X74766782Y-68269255D01*
X75035110Y-68070249D01*
X75045203Y-68063506D01*
X75331734Y-67891767D01*
X75342426Y-67886051D01*
X75644439Y-67743210D01*
X75655646Y-67738569D01*
X75970159Y-67626033D01*
X75981790Y-67622504D01*
X76305839Y-67541334D01*
X76317750Y-67538965D01*
X76648177Y-67489951D01*
X76660279Y-67488759D01*
X76880101Y-67477960D01*
X76882198Y-67478184D01*
X76883260Y-67477845D01*
X76918302Y-67482042D01*
G37*
%TD.AperFunction*%
%TA.AperFunction,Conductor*%
G36*
X215078999Y-67109685D02*
G01*
X215124754Y-67162489D01*
X215135960Y-67214000D01*
X215135960Y-68391714D01*
X215116275Y-68458753D01*
X215063471Y-68504508D01*
X214994313Y-68514452D01*
X214930757Y-68485427D01*
X214905207Y-68454799D01*
X214853240Y-68366859D01*
X214853235Y-68366853D01*
X214819148Y-68319612D01*
X214743340Y-68214549D01*
X214633446Y-68062245D01*
X214633442Y-68062240D01*
X214386779Y-67778925D01*
X214115332Y-67519304D01*
X214115311Y-67519286D01*
X213853456Y-67311053D01*
X213813237Y-67253920D01*
X213810291Y-67184113D01*
X213845553Y-67123794D01*
X213907829Y-67092115D01*
X213930635Y-67090000D01*
X215011960Y-67090000D01*
X215078999Y-67109685D01*
G37*
%TD.AperFunction*%
%TA.AperFunction,Conductor*%
G36*
X74361870Y-67109685D02*
G01*
X74407625Y-67162489D01*
X74417569Y-67231647D01*
X74388544Y-67295203D01*
X74365955Y-67315575D01*
X74240328Y-67403539D01*
X73937381Y-67657743D01*
X73657743Y-67937381D01*
X73403533Y-68240335D01*
X73361534Y-68300317D01*
X73306957Y-68343942D01*
X73237459Y-68351134D01*
X73175104Y-68319612D01*
X73139691Y-68259382D01*
X73135960Y-68229193D01*
X73135960Y-67214000D01*
X73155645Y-67146961D01*
X73208449Y-67101206D01*
X73259960Y-67090000D01*
X74294831Y-67090000D01*
X74361870Y-67109685D01*
G37*
%TD.AperFunction*%
%TD*%
M02*
