%TF.GenerationSoftware,KiCad,Pcbnew,9.0.4*%
%TF.CreationDate,2025-10-13T09:43:13+02:00*%
%TF.ProjectId,Patch_Antenna,50617463-685f-4416-9e74-656e6e612e6b,rev?*%
%TF.SameCoordinates,Original*%
%TF.FileFunction,Copper,L1,Top*%
%TF.FilePolarity,Positive*%
%FSLAX46Y46*%
G04 Gerber Fmt 4.6, Leading zero omitted, Abs format (unit mm)*
G04 Created by KiCad (PCBNEW 9.0.4) date 2025-10-13 09:43:13*
%MOMM*%
%LPD*%
G01*
G04 APERTURE LIST*
G04 Aperture macros list*
%AMRoundRect*
0 Rectangle with rounded corners*
0 $1 Rounding radius*
0 $2 $3 $4 $5 $6 $7 $8 $9 X,Y pos of 4 corners*
0 Add a 4 corners polygon primitive as box body*
4,1,4,$2,$3,$4,$5,$6,$7,$8,$9,$2,$3,0*
0 Add four circle primitives for the rounded corners*
1,1,$1+$1,$2,$3*
1,1,$1+$1,$4,$5*
1,1,$1+$1,$6,$7*
1,1,$1+$1,$8,$9*
0 Add four rect primitives between the rounded corners*
20,1,$1+$1,$2,$3,$4,$5,0*
20,1,$1+$1,$4,$5,$6,$7,0*
20,1,$1+$1,$6,$7,$8,$9,0*
20,1,$1+$1,$8,$9,$2,$3,0*%
G04 Aperture macros list end*
%TA.AperFunction,EtchedComponent*%
%ADD10C,0.200000*%
%TD*%
%TA.AperFunction,ComponentPad*%
%ADD11C,3.556000*%
%TD*%
%TA.AperFunction,SMDPad,CuDef*%
%ADD12RoundRect,0.104625X-1.045375X-0.244125X1.045375X-0.244125X1.045375X0.244125X-1.045375X0.244125X0*%
%TD*%
%TA.AperFunction,SMDPad,CuDef*%
%ADD13RoundRect,0.104063X-1.043437X-0.242812X1.043437X-0.242812X1.043437X0.242812X-1.043437X0.242812X0*%
%TD*%
%TA.AperFunction,Conductor*%
%ADD14C,0.200000*%
%TD*%
G04 APERTURE END LIST*
%TO.C,AE2*%
D10*
X115124700Y-109557600D02*
X145849700Y-109557600D01*
X145849700Y-110057600D01*
X115124700Y-110057600D01*
X115124700Y-109557600D01*
%TA.AperFunction,EtchedComponent*%
G36*
X115124700Y-109557600D02*
G01*
X145849700Y-109557600D01*
X145849700Y-110057600D01*
X115124700Y-110057600D01*
X115124700Y-109557600D01*
G37*
%TD.AperFunction*%
X138504700Y-99923120D02*
X117556700Y-99923120D01*
X117556700Y-99924720D01*
X115423100Y-99924720D01*
X115423100Y-110057600D01*
X114926300Y-110057600D01*
X114926300Y-99918320D01*
X112792700Y-99918320D01*
X112792700Y-99923120D01*
X92150300Y-99923120D01*
X92150300Y-71592400D01*
X138504700Y-71592400D01*
X138504700Y-99923120D01*
%TA.AperFunction,EtchedComponent*%
G36*
X138504700Y-99923120D02*
G01*
X117556700Y-99923120D01*
X117556700Y-99924720D01*
X115423100Y-99924720D01*
X115423100Y-110057600D01*
X114926300Y-110057600D01*
X114926300Y-99918320D01*
X112792700Y-99918320D01*
X112792700Y-99923120D01*
X92150300Y-99923120D01*
X92150300Y-71592400D01*
X138504700Y-71592400D01*
X138504700Y-99923120D01*
G37*
%TD.AperFunction*%
X199654700Y-99931870D02*
X178806700Y-99931870D01*
X178806700Y-99933470D01*
X176673100Y-99933470D01*
X176673100Y-110081350D01*
X176176300Y-110081350D01*
X176176300Y-99937070D01*
X174042700Y-99937070D01*
X174042700Y-99931870D01*
X153350300Y-99931870D01*
X153350300Y-71601150D01*
X199654700Y-71601150D01*
X199654700Y-99931870D01*
%TA.AperFunction,EtchedComponent*%
G36*
X199654700Y-99931870D02*
G01*
X178806700Y-99931870D01*
X178806700Y-99933470D01*
X176673100Y-99933470D01*
X176673100Y-110081350D01*
X176176300Y-110081350D01*
X176176300Y-99937070D01*
X174042700Y-99937070D01*
X174042700Y-99931870D01*
X153350300Y-99931870D01*
X153350300Y-71601150D01*
X199654700Y-71601150D01*
X199654700Y-99931870D01*
G37*
%TD.AperFunction*%
X145159700Y-109566350D02*
X176354700Y-109566350D01*
X176354700Y-110076350D01*
X145159700Y-110076350D01*
X145159700Y-109566350D01*
%TA.AperFunction,EtchedComponent*%
G36*
X145159700Y-109566350D02*
G01*
X176354700Y-109566350D01*
X176354700Y-110076350D01*
X145159700Y-110076350D01*
X145159700Y-109566350D01*
G37*
%TD.AperFunction*%
%TD*%
D11*
%TO.P,J2,1,In*%
%TO.N,Net-(AE2-A)*%
X145670000Y-109800000D03*
%TD*%
D12*
%TO.P,AE2,1,A*%
%TO.N,N/C*%
X144799700Y-109807600D03*
%TD*%
D13*
%TO.P,AE2,1,A*%
%TO.N,Net-(AE2-A)*%
X146224700Y-109816350D03*
%TD*%
D14*
%TO.N,Net-(AE1-A)*%
X120099700Y-122878750D02*
X120124700Y-122903750D01*
%TD*%
M02*
